<svg width="21" height="21" viewBox="0 0 21 21" fill="none" xmlns="http://www.w3.org/2000/svg">
<path d="M8.85938 12.6876V7.43762M10.5 7.43762V6.12512M10.5 14.0001V12.6876M8.85938 10.0626H12.1406M12.1406 10.0626C12.6843 10.0626 13.125 10.5033 13.125 11.047V11.7032C13.125 12.2469 12.6843 12.6876 12.1406 12.6876H7.875M12.1406 10.0626C12.6843 10.0626 13.125 9.62187 13.125 9.07823V8.422C13.125 7.87834 12.6843 7.43762 12.1406 7.43762H7.875" stroke="#363636" stroke-width="1.3125" stroke-linecap="round" stroke-linejoin="round"/>
<path d="M18.375 9.78559V7.24544C18.375 5.81044 18.375 5.09294 18.0214 4.62481C17.6678 4.1567 16.8683 3.92943 15.2694 3.4749C14.1769 3.16436 13.2139 2.79023 12.4445 2.44869C11.3955 1.98302 10.871 1.75018 10.5 1.75018C10.129 1.75018 9.60452 1.98302 8.5555 2.44869C7.78609 2.79023 6.82311 3.16436 5.73066 3.4749C4.13169 3.92943 3.33219 4.1567 2.9786 4.62481C2.625 5.09294 2.625 5.81044 2.625 7.24544V9.78559C2.625 14.7076 7.05492 17.6608 9.26975 18.8297C9.80096 19.11 10.0665 19.2502 10.5 19.2502C10.9335 19.2502 11.199 19.11 11.7303 18.8297C13.9451 17.6608 18.375 14.7076 18.375 9.78559Z" stroke="#363636" stroke-width="1.3125" stroke-linecap="round"/>
</svg>
