<svg width="21" height="21" viewBox="0 0 21 21" fill="none" xmlns="http://www.w3.org/2000/svg">
<path d="M14 11.375C14 12.0999 14.5876 12.6875 15.3125 12.6875C16.0374 12.6875 16.625 12.0999 16.625 11.375C16.625 10.6501 16.0374 10.0625 15.3125 10.0625C14.5876 10.0625 14 10.6501 14 11.375Z" stroke="#363636" stroke-width="1.3125"/>
<path d="M9.625 16.625H14C16.4748 16.625 17.7123 16.625 18.4811 15.8561C19.25 15.0873 19.25 13.8498 19.25 11.375V10.5C19.25 8.02512 19.25 6.78769 18.4811 6.01885C17.92 5.45771 17.1092 5.30611 15.75 5.26516M15.75 5.26516C15.2469 5.25 14.6686 5.25 14 5.25H8.75M15.75 5.26516C15.75 4.43552 15.75 4.02071 15.6122 3.69432C15.4349 3.27434 15.1007 2.94012 14.6807 2.7628C14.3543 2.625 13.9395 2.625 13.1099 2.625H8.75C5.45017 2.625 3.80026 2.625 2.77512 3.65012C1.75 4.67526 1.75 5.45017 1.75 8.75" stroke="#363636" stroke-width="1.3125" stroke-linecap="round"/>
<path d="M2.73438 17.0625V11.8125M4.375 11.8125V10.5M4.375 18.375V17.0625M2.73438 14.4375H6.01562M6.01562 14.4375C6.55928 14.4375 7 14.8782 7 15.4219V16.0781C7 16.6218 6.55928 17.0625 6.01562 17.0625H1.75M6.01562 14.4375C6.55928 14.4375 7 13.9968 7 13.4531V12.7969C7 12.2532 6.55928 11.8125 6.01562 11.8125H1.75" stroke="#363636" stroke-width="1.3125" stroke-linecap="round" stroke-linejoin="round"/>
</svg>
