<svg width="21" height="21" viewBox="0 0 21 21" fill="none" xmlns="http://www.w3.org/2000/svg">
<path d="M4.375 16.6251V18.3751M16.625 16.6251V18.3751" stroke="#363636" stroke-width="1.3125" stroke-linecap="round" stroke-linejoin="round"/>
<path d="M14 5.25H7C4.52512 5.25 3.28769 5.25 2.51884 6.01885C1.75 6.78769 1.75 8.02512 1.75 10.5V11.375C1.75 13.8498 1.75 15.0873 2.51884 15.8561C3.28769 16.625 4.52512 16.625 7 16.625H14C16.4748 16.625 17.7123 16.625 18.4811 15.8561C19.25 15.0873 19.25 13.8498 19.25 11.375V10.5C19.25 8.02512 19.25 6.78769 18.4811 6.01885C17.7123 5.25 16.4748 5.25 14 5.25Z" stroke="#363636" stroke-width="1.3125" stroke-linecap="round" stroke-linejoin="round"/>
<path d="M6.125 5.25L6.20226 5.0182C6.58728 3.86317 6.77978 3.28565 7.23809 2.95533C7.69639 2.625 8.30514 2.625 9.52263 2.625H11.4774C12.6948 2.625 13.3036 2.625 13.7619 2.95533C14.2202 3.28565 14.4127 3.86317 14.7977 5.0182L14.875 5.25" stroke="#363636" stroke-width="1.3125" stroke-linecap="round" stroke-linejoin="round"/>
<path d="M16.625 12.0312V9.84375C16.625 9.23974 16.1354 8.75 15.5312 8.75C14.9271 8.75 14.4375 9.23974 14.4375 9.84375V12.0312C14.4375 12.6354 14.9271 13.125 15.5312 13.125C16.1354 13.125 16.625 12.6354 16.625 12.0312Z" stroke="#363636" stroke-width="1.3125" stroke-linecap="round" stroke-linejoin="round"/>
<path d="M11.8125 12.0312V9.84375C11.8125 9.23965 11.3229 8.75 10.7188 8.75C10.1146 8.75 9.625 9.23965 9.625 9.84375V12.0312C9.625 12.6354 10.1146 13.125 10.7188 13.125C11.3229 13.125 11.8125 12.6353 11.8125 12.0312Z" stroke="#363636" stroke-width="1.3125" stroke-linecap="round" stroke-linejoin="round"/>
<path d="M4.375 13.125V8.75" stroke="#363636" stroke-width="1.3125" stroke-linecap="round" stroke-linejoin="round"/>
<path d="M6.99998 9.625H7.00784M6.99216 12.25H7.00001" stroke="#363636" stroke-width="1.3125" stroke-linecap="round" stroke-linejoin="round"/>
</svg>
