<svg width="21" height="21" viewBox="0 0 21 21" fill="none" xmlns="http://www.w3.org/2000/svg">
<path d="M6.125 8.75V14.875" stroke="#363636" stroke-width="1.3125" stroke-linecap="round" stroke-linejoin="round"/>
<path d="M9.625 11.375V14.875M9.625 11.375C9.625 9.92521 10.8002 8.75 12.25 8.75C13.6998 8.75 14.875 9.92521 14.875 11.375V14.875M9.625 11.375V8.75" stroke="#363636" stroke-width="1.3125" stroke-linecap="round" stroke-linejoin="round"/>
<path d="M6.13201 6.125H6.12415" stroke="#363636" stroke-width="1.75" stroke-linecap="round" stroke-linejoin="round"/>
<path d="M2.1875 10.5C2.1875 6.58145 2.1875 4.62218 3.40483 3.40483C4.62218 2.1875 6.58145 2.1875 10.5 2.1875C14.4185 2.1875 16.3778 2.1875 17.5952 3.40483C18.8125 4.62218 18.8125 6.58145 18.8125 10.5C18.8125 14.4185 18.8125 16.3778 17.5952 17.5952C16.3778 18.8125 14.4185 18.8125 10.5 18.8125C6.58145 18.8125 4.62218 18.8125 3.40483 17.5952C2.1875 16.3778 2.1875 14.4185 2.1875 10.5Z" stroke="#363636" stroke-width="1.3125" stroke-linejoin="round"/>
</svg>
