<svg width="21" height="21" viewBox="0 0 21 21" fill="none" xmlns="http://www.w3.org/2000/svg">
<path d="M3.73433 16.4891C3.9311 17.9506 5.14161 19.0956 6.6147 19.1633C7.85424 19.2202 9.11339 19.25 10.5 19.25C11.8866 19.25 13.1457 19.2202 14.3853 19.1633C15.8584 19.0956 17.0689 17.9506 17.2657 16.4891C17.3941 15.5354 17.5 14.5579 17.5 13.5625C17.5 12.5671 17.3941 11.5896 17.2657 10.6359C17.0689 9.17438 15.8584 8.02943 14.3853 7.9617C13.1457 7.90472 11.8866 7.875 10.5 7.875C9.11339 7.875 7.85424 7.90472 6.6147 7.9617C5.14161 8.02943 3.9311 9.17438 3.73433 10.6359C3.60591 11.5896 3.5 12.5671 3.5 13.5625C3.5 14.5579 3.60591 15.5354 3.73433 16.4891Z" stroke="#363636" stroke-width="1.3125"/>
<path d="M6.5625 7.875V5.6875C6.5625 3.51288 8.32538 1.75 10.5 1.75C12.6746 1.75 14.4375 3.51288 14.4375 5.6875V7.875" stroke="#363636" stroke-width="1.3125" stroke-linecap="round" stroke-linejoin="round"/>
<path d="M10.4966 13.5625H10.5045" stroke="#363636" stroke-width="1.75" stroke-linecap="round" stroke-linejoin="round"/>
</svg>
