<svg width="187" height="168" viewBox="0 0 187 168" fill="none" xmlns="http://www.w3.org/2000/svg">
<path d="M131.393 55.8333L77.2261 34.4444L91.9483 137.778L152.226 73.0555C146.671 63.2777 135.189 57.5925 131.393 55.8333Z" fill="#EC181C"/>
<path d="M186.67 0H128.893H127.782L100.282 21.6667L91.9482 37.2222L143.059 56.6667L150.837 64.1667L164.17 40.2778H123.615L127.782 28.0556L136.115 20H175.282L186.67 0Z" fill="#F6F6F6"/>
<path d="M122.782 0H4.17058H0L19.4484 35L24.1706 20.8333H47.2261L37.5039 68.0555L67.5039 122.222L69.4483 115.278L60.0039 71.1111L69.4483 20.8333H94.1706L122.782 0Z" fill="#F6F6F6"/>
<path d="M82.504 90.2778L70.2817 125L94.1706 167.5L110.282 122.5L90.5595 143.611L82.504 90.2778Z" fill="#F6F6F6"/>
<path d="M108.489 74.5276L85.4332 45.6387C83.6554 42.3054 84.1369 45.3609 84.5998 47.3054C88.0258 66.6572 92.782 122.222 93.8931 125.556C95.0042 128.889 98.5813 114.805 99.0442 113.416C102.192 103.694 108.6 79.9165 109.044 78.1387C109.489 76.3609 108.859 74.9906 108.489 74.5276Z" fill="#1E1E1E"/>
<path d="M129.044 59.8053L89.3219 42.8609C85.3219 41.3053 85.9885 42.9535 86.8219 43.972C94.4144 52.8609 109.822 70.9165 110.711 72.0276C111.6 73.1387 113.118 72.6757 113.766 72.3053C118.396 69.1572 127.989 62.6387 129.322 61.7498C130.655 60.8609 129.692 60.0831 129.044 59.8053Z" fill="#1E1E1E"/>
<path d="M117.377 72.5831C115.377 73.9164 116.544 74.435 117.377 74.5276C124.137 74.3424 138.322 73.9164 140.989 73.6942C143.655 73.472 145.803 73.3239 145.155 72.5831C143.674 70.9164 137.489 65.6942 135.711 63.6942C133.933 61.6942 131.266 62.8609 130.155 63.6942C126.729 66.1016 119.377 71.2498 117.377 72.5831Z" fill="#1E1E1E"/>
<path d="M138.489 75.9164L113.489 77.5831C112.155 77.672 111.637 78.5461 111.544 78.972C108.211 90.1757 96.5597 123.556 96.1152 125.556C95.6708 127.556 102.967 119.722 103.615 119.167C115.374 107.13 138.044 79.4164 139.6 77.8609C141.155 76.3053 139.507 75.9164 138.489 75.9164Z" fill="#1E1E1E"/>
</svg>
