<svg width="21" height="21" viewBox="0 0 21 21" fill="none" xmlns="http://www.w3.org/2000/svg">
<path d="M5.6875 7.875H7.4375" stroke="#363636" stroke-width="1.3125" stroke-linecap="round" stroke-linejoin="round"/>
<path d="M15.3125 7V3.5C15.3125 2.5335 16.096 1.75 17.0625 1.75" stroke="#363636" stroke-width="1.3125" stroke-linecap="round" stroke-linejoin="round"/>
<path d="M10.9375 15.75V19.25" stroke="#363636" stroke-width="1.3125" stroke-linecap="round"/>
<path d="M15.3125 4.51403C14.4682 4.375 13.3517 4.375 11.7031 4.375H9.29688C6.74337 4.375 5.46662 4.375 4.50014 4.89159C3.73702 5.29949 3.11199 5.92452 2.70409 6.68764C2.1875 7.65412 2.1875 8.93086 2.1875 11.4844C2.1875 13.0165 2.1875 13.7826 2.49746 14.3624C2.7422 14.8203 3.11721 15.1953 3.57508 15.4401C4.15497 15.75 4.92103 15.75 6.45312 15.75H14.5469C16.079 15.75 16.8451 15.75 17.4249 15.4401C17.8828 15.1953 18.2578 14.8203 18.5026 14.3624C18.8125 13.7826 18.8125 13.0165 18.8125 11.4844C18.8125 8.93086 18.8125 7.65412 18.2959 6.68764C18.1436 6.40286 17.9612 6.1373 17.7526 5.89509" stroke="#363636" stroke-width="1.3125" stroke-linecap="round"/>
<path d="M10.938 15.75V9.625C10.938 8.81213 10.938 8.40568 10.8841 8.0656C10.5877 6.19357 9.11942 4.72536 7.24741 4.42886C7.17578 4.41752 7.1012 4.40856 7.02051 4.40149" stroke="#363636" stroke-width="1.3125" stroke-linecap="round"/>
</svg>
