<svg width="21" height="21" viewBox="0 0 21 21" fill="none" xmlns="http://www.w3.org/2000/svg">
<path d="M19.25 18.375H18.375C17.105 18.375 15.9932 17.6235 15.75 16.625C15.5068 17.6235 14.395 18.375 13.125 18.375C11.855 18.375 10.7432 17.6235 10.5 16.625C10.2568 17.6235 9.14498 18.375 7.875 18.375C6.60505 18.375 5.49322 17.6235 5.25 16.625C5.00678 17.6235 3.89495 18.375 2.625 18.375H1.75" stroke="#363636" stroke-width="1.3125" stroke-linecap="round" stroke-linejoin="round"/>
<path d="M16.625 2.625L16.3932 2.70226C15.2382 3.08728 14.6606 3.27978 14.3303 3.73809C14 4.19639 14 4.80514 14 6.02266V14.875" stroke="#363636" stroke-width="1.3125" stroke-linecap="round" stroke-linejoin="round"/>
<path d="M9.625 2.625L9.39321 2.70226C8.23817 3.08728 7.66065 3.27978 7.33033 3.73809C7 4.19639 7 4.80514 7 6.02266V14.875" stroke="#363636" stroke-width="1.3125" stroke-linecap="round" stroke-linejoin="round"/>
<path d="M7 6.125H14M7 9.625H14M7 13.125H14" stroke="#363636" stroke-width="1.3125" stroke-linecap="round" stroke-linejoin="round"/>
</svg>
