<svg width="21" height="21" viewBox="0 0 21 21" fill="none" xmlns="http://www.w3.org/2000/svg">
<path d="M8.45834 6.75001V5.61161C8.45834 4.3298 8.99334 3.22487 9.78162 2.29344C10.0882 1.93114 10.2415 1.75 10.5 1.75C10.7585 1.75 10.9118 1.93114 11.2184 2.29344C12.0067 3.22487 12.5416 4.3298 12.5416 5.61161V6.75001C12.5416 7.68751 12.5416 7.95407 13.1081 8.36413C13.5612 8.65541 14 8.93751 14 9.50233C14 10.1875 13.7084 10.5 13.0688 10.5H7.93113C7.29166 10.5 7 10.1875 7 9.50233C7 8.93751 7.43878 8.65541 7.89191 8.36413C8.45834 7.95407 8.45834 7.68751 8.45834 6.75001Z" stroke="#363636" stroke-width="1.3125" stroke-linejoin="round"/>
<path d="M17.0625 19.25C18.2706 19.25 19.25 18.2053 19.25 16.9166C19.25 15.628 18.2706 14.5834 17.0625 14.5834C17.0625 13.2947 16.0831 12.25 14.875 12.25" stroke="#363636" stroke-width="1.3125" stroke-linecap="round" stroke-linejoin="round"/>
<path d="M3.9375 19.25C2.72938 19.25 1.75 18.2053 1.75 16.9166C1.75 15.628 2.72938 14.5834 3.9375 14.5834C3.9375 13.2947 4.91688 12.25 6.125 12.25" stroke="#363636" stroke-width="1.3125" stroke-linecap="round" stroke-linejoin="round"/>
<path d="M8.75 13.125V17.5" stroke="#363636" stroke-width="1.3125" stroke-linecap="round"/>
<path d="M12.25 13.125V14.875" stroke="#363636" stroke-width="1.3125" stroke-linecap="round"/>
</svg>
