<svg width="21" height="21" viewBox="0 0 21 21" fill="none" xmlns="http://www.w3.org/2000/svg">
<path d="M13.125 1.75L13.5964 3.84262C13.9962 5.61763 15.3823 7.00377 17.1574 7.40361L19.25 7.875L17.1574 8.34639C15.3823 8.74623 13.9962 10.1323 13.5964 11.9074L13.125 14L12.6536 11.9074C12.2538 10.1323 10.8677 8.74623 9.09265 8.34639L7 7.875L9.09265 7.40361C10.8676 7.00377 12.2538 5.61763 12.6536 3.84263L13.125 1.75Z" stroke="#363636" stroke-width="1.3125" stroke-linejoin="round"/>
<path d="M6.125 10.5L6.46171 11.9948C6.74731 13.2625 7.73741 14.2527 9.00524 14.5383L10.5 14.875L9.00524 15.2117C7.73741 15.4973 6.74731 16.4874 6.46171 17.7552L6.125 19.25L5.78829 17.7552C5.50269 16.4874 4.51259 15.4973 3.24474 15.2117L1.75 14.875L3.24474 14.5383C4.51259 14.2527 5.50269 13.2626 5.78829 11.9948L6.125 10.5Z" stroke="#363636" stroke-width="1.3125" stroke-linejoin="round"/>
</svg>
