<svg width="21" height="21" viewBox="0 0 21 21" fill="none" xmlns="http://www.w3.org/2000/svg">
<path d="M14.875 9.45394C14.875 9.15145 14.875 9.00025 14.9205 8.8655C15.0528 8.47389 15.4016 8.32192 15.751 8.16277C16.1438 7.98387 16.3401 7.89442 16.5347 7.87868C16.7556 7.86081 16.9769 7.90841 17.1657 8.01438C17.4161 8.15486 17.5906 8.42181 17.7694 8.63889C18.5949 9.64145 19.0075 10.1428 19.1586 10.6957C19.2804 11.1417 19.2804 11.6083 19.1586 12.0544C18.9383 12.8607 18.2424 13.5366 17.7273 14.1622C17.4639 14.4822 17.3321 14.6423 17.1657 14.7356C16.9769 14.8416 16.7556 14.8892 16.5347 14.8713C16.3401 14.8556 16.1438 14.7662 15.751 14.5872C15.4016 14.4281 15.0528 14.2762 14.9205 13.8845C14.875 13.7498 14.875 13.5986 14.875 13.2961V9.45394Z" stroke="#363636" stroke-width="1.3125"/>
<path d="M6.125 9.45403C6.125 9.07323 6.11431 8.73094 5.80642 8.46318C5.69444 8.36579 5.54597 8.29816 5.24905 8.16292C4.85626 7.98401 4.65986 7.89456 4.46526 7.87882C3.88142 7.8316 3.56731 8.23009 3.23061 8.63904C2.40516 9.64163 1.99243 10.1429 1.8414 10.6957C1.71953 11.1419 1.71953 11.6085 1.8414 12.0545C2.06168 12.8608 2.75758 13.5367 3.27268 14.1624C3.59738 14.5568 3.90755 14.9166 4.46526 14.8715C4.65986 14.8558 4.85626 14.7662 5.24905 14.5874C5.54597 14.4521 5.69444 14.3845 5.80642 14.2871C6.11431 14.0193 6.125 13.6771 6.125 13.2962V9.45403Z" stroke="#363636" stroke-width="1.3125"/>
<path d="M4.375 7.875C4.375 4.9755 7.11726 2.625 10.5 2.625C13.8827 2.625 16.625 4.9755 16.625 7.875" stroke="#363636" stroke-width="1.3125" stroke-linecap="square" stroke-linejoin="round"/>
<path d="M16.625 14.875V15.575C16.625 17.1214 15.058 18.375 13.125 18.375H11.375" stroke="#363636" stroke-width="1.3125" stroke-linecap="round" stroke-linejoin="round"/>
</svg>
