<svg width="21" height="21" viewBox="0 0 21 21" fill="none" xmlns="http://www.w3.org/2000/svg">
<path d="M10.5 3.5V6.125M15.75 6.125L14 7.875M5.25 6.125L7 7.875" stroke="#363636" stroke-width="1.3125" stroke-linecap="round" stroke-linejoin="round"/>
<path d="M13.931 15.0888L13.9396 15.1396C14.0399 15.733 14.09 16.0298 14.2458 16.2696C14.2922 16.3409 14.345 16.4078 14.4036 16.4693C14.6008 16.6763 14.8775 16.7933 15.4311 17.0273C16.263 17.379 16.6789 17.5549 17.0779 17.4849C17.1951 17.4643 17.3091 17.4286 17.4171 17.3786C17.7849 17.2085 18.0294 16.8227 18.5182 16.051C19.0282 15.2463 19.2831 14.8438 19.2466 14.3846C19.2384 14.2817 19.2116 14.1512 19.1786 14.0534C19.0316 13.6168 18.6859 13.38 17.9946 12.9061C13.3147 9.69798 7.68529 9.69798 3.0054 12.9061C2.31408 13.38 1.96843 13.6168 1.82135 14.0534C1.78839 14.1512 1.76164 14.2817 1.75345 14.3846C1.7169 14.8438 1.97185 15.2463 2.48174 16.051C2.97066 16.8227 3.21512 17.2085 3.58289 17.3786C3.69089 17.4286 3.8049 17.4643 3.92206 17.4849C4.32105 17.5549 4.73699 17.379 5.56887 17.0273C6.12243 16.7933 6.3992 16.6763 6.59636 16.4693C6.65502 16.4078 6.70786 16.3409 6.75421 16.2696C6.90999 16.0298 6.96012 15.733 7.0604 15.1396L7.06897 15.0888C7.17248 14.4762 7.22423 14.1698 7.45121 13.889C7.48297 13.8497 7.54077 13.7873 7.57752 13.7526C7.84018 13.5049 8.07198 13.4475 8.53555 13.3328C9.78416 13.0237 11.2158 13.0237 12.4645 13.3328C12.928 13.4475 13.1598 13.5049 13.4225 13.7526C13.4592 13.7873 13.517 13.8497 13.5488 13.889C13.7757 14.1698 13.8275 14.4762 13.931 15.0888Z" stroke="#363636" stroke-width="1.3125" stroke-linecap="square" stroke-linejoin="round"/>
</svg>
