<svg width="21" height="21" viewBox="0 0 21 21" fill="none" xmlns="http://www.w3.org/2000/svg">
<path d="M11.375 9.625C11.375 7.692 9.80796 6.125 7.875 6.125C5.942 6.125 4.375 7.692 4.375 9.625C4.375 11.558 5.942 13.125 7.875 13.125C9.80796 13.125 11.375 11.558 11.375 9.625Z" stroke="#363636" stroke-width="1.3125" stroke-linecap="round" stroke-linejoin="round"/>
<path d="M9.65877 6.61301C9.63646 6.45354 9.625 6.29061 9.625 6.125C9.625 4.192 11.192 2.625 13.125 2.625C15.058 2.625 16.625 4.192 16.625 6.125C16.625 8.058 15.058 9.625 13.125 9.625C12.4735 9.625 11.8636 9.44702 11.3412 9.13701" stroke="#363636" stroke-width="1.3125" stroke-linecap="round" stroke-linejoin="round"/>
<path d="M13.125 18.375C13.125 15.4755 10.7745 13.125 7.875 13.125C4.9755 13.125 2.625 15.4755 2.625 18.375" stroke="#363636" stroke-width="1.3125" stroke-linecap="round" stroke-linejoin="round"/>
<path d="M18.375 14.875C18.375 11.9755 16.0245 9.625 13.125 9.625" stroke="#363636" stroke-width="1.3125" stroke-linecap="round" stroke-linejoin="round"/>
</svg>
