<svg width="21" height="21" viewBox="0 0 21 21" fill="none" xmlns="http://www.w3.org/2000/svg">
<path d="M7.54962 11.0894H7.14803C5.84977 11.0894 5.20063 11.0894 4.92394 10.6613C4.64725 10.2334 4.91088 9.63708 5.43816 8.44448L7.02334 4.85908C7.50275 3.77475 7.74245 3.23258 8.20747 2.92879C8.67249 2.625 9.26266 2.625 10.4431 2.625H12.2713C13.7053 2.625 14.4223 2.625 14.6926 3.09343C14.9631 3.56186 14.6074 4.18764 13.896 5.4392L12.958 7.08915C12.6044 7.71133 12.4275 8.02243 12.43 8.27708C12.4332 8.60803 12.6092 8.91292 12.8935 9.07987C13.1122 9.20841 13.4686 9.20841 14.1815 9.20841C15.0826 9.20841 15.5333 9.20841 15.7679 9.36442C16.0728 9.56707 16.2324 9.92967 16.1765 10.2928C16.1334 10.5723 15.8303 10.9074 15.2241 11.5777L10.3809 16.9333C9.42961 17.9852 8.95396 18.5112 8.63456 18.3447C8.31515 18.1782 8.46854 17.4844 8.77529 16.0967L9.37624 13.3784C9.60977 12.3218 9.72659 11.7934 9.44571 11.4414C9.16484 11.0894 8.62642 11.0894 7.54962 11.0894Z" stroke="#363636" stroke-width="1.3125" stroke-linejoin="round"/>
</svg>
