<svg width="319" height="319" viewBox="0 0 319 319" fill="none" xmlns="http://www.w3.org/2000/svg">
<rect width="319" height="319" fill="#212121"/>
<path d="M198.393 131.833L144.226 110.444L158.948 213.778L219.226 149.056C213.671 139.278 202.189 133.593 198.393 131.833Z" fill="#EC181C"/>
<path d="M253.67 76H195.893H194.782L167.282 97.6667L158.948 113.222L210.059 132.667L217.837 140.167L231.17 116.278H190.615L194.782 104.056L203.115 96H242.282L253.67 76Z" fill="#F6F6F6"/>
<path d="M189.782 76H71.1706H67L86.4484 111L91.1706 96.8333H114.226L104.504 144.056L134.504 198.222L136.448 191.278L127.004 147.111L136.448 96.8333H161.171L189.782 76Z" fill="#F6F6F6"/>
<path d="M149.504 166.278L137.282 201L161.171 243.5L177.282 198.5L157.56 219.611L149.504 166.278Z" fill="#F6F6F6"/>
<path d="M175.489 150.528L152.433 121.639C150.655 118.305 151.137 121.361 151.6 123.305C155.026 142.657 159.782 198.222 160.893 201.556C162.004 204.889 165.581 190.805 166.044 189.416C169.192 179.694 175.6 155.916 176.044 154.139C176.489 152.361 175.859 150.991 175.489 150.528Z" fill="#1E1E1E"/>
<path d="M196.044 135.805L156.322 118.861C152.322 117.305 152.989 118.953 153.822 119.972C161.414 128.861 176.822 146.916 177.711 148.028C178.6 149.139 180.118 148.676 180.766 148.305C185.396 145.157 194.989 138.639 196.322 137.75C197.655 136.861 196.692 136.083 196.044 135.805Z" fill="#1E1E1E"/>
<path d="M184.377 148.583C182.377 149.916 183.544 150.435 184.377 150.528C191.137 150.342 205.322 149.916 207.989 149.694C210.655 149.472 212.803 149.324 212.155 148.583C210.674 146.916 204.489 141.694 202.711 139.694C200.933 137.694 198.266 138.861 197.155 139.694C193.729 142.102 186.377 147.25 184.377 148.583Z" fill="#1E1E1E"/>
<path d="M205.489 151.916L180.489 153.583C179.155 153.672 178.637 154.546 178.544 154.972C175.211 166.176 163.56 199.556 163.115 201.556C162.671 203.556 169.967 195.722 170.615 195.167C182.374 183.13 205.044 155.416 206.6 153.861C208.155 152.305 206.507 151.916 205.489 151.916Z" fill="#1E1E1E"/>
</svg>
